<?xml version="1.0" standalone="no"?>
<!DOCTYPE svg PUBLIC "-//W3C//DTD SVG 20010904//EN"
 "http://www.w3.org/TR/2001/REC-SVG-20010904/DTD/svg10.dtd">
<svg version="1.0" xmlns="http://www.w3.org/2000/svg"
 width="400.000000pt" height="400.000000pt" viewBox="0 0 400.000000 400.000000"
 preserveAspectRatio="xMidYMid meet">
<metadata>
Created by potrace 1.14, written by Peter Selinger 2001-2017
</metadata>
<g transform="translate(0.000000,400.000000) scale(0.100000,-0.100000)"
fill="#000000" stroke="none">
<path d="M221 3793 c0 -115 4 -230 9 -258 5 -35 8 4 9 131 0 100 4 215 7 257
6 67 5 77 -10 77 -14 0 -16 -21 -15 -207z"/>
<path d="M484 3978 c3 -13 17 -81 31 -153 32 -164 96 -398 147 -539 63 -177
80 -328 94 -813 6 -224 -1 -314 -17 -238 -7 30 -7 30 -8 -6 0 -20 2 -39 6 -42
3 -4 7 -36 8 -72 1 -55 -2 -66 -17 -71 -10 -3 -18 -10 -18 -15 0 -6 8 -8 19
-4 14 4 20 0 25 -17 9 -35 7 -84 -5 -115 l-10 -28 -34 64 c-19 36 -42 84 -51
108 -9 24 -21 43 -25 43 -5 0 -9 7 -9 15 0 9 -13 43 -29 78 -52 112 -69 151
-84 204 l-16 52 42 -5 c52 -6 101 7 105 28 4 20 -23 46 -113 110 -41 29 -77
47 -87 44 -10 -2 -18 -1 -19 2 -2 20 -12 58 -39 157 -17 61 -42 148 -55 195
l-23 85 4 -74 c2 -40 7 -78 10 -85 5 -8 4 -8 -5 0 -7 6 -21 38 -31 70 -17 50
-19 53 -14 19 9 -65 52 -238 79 -317 14 -40 25 -76 25 -80 0 -10 -64 3 -68 14
-2 4 -8 6 -12 3 -5 -3 -70 8 -145 25 -75 16 -138 30 -140 30 -3 0 -5 -16 -5
-35 0 -31 4 -36 50 -57 37 -17 50 -28 47 -40 -6 -21 19 -58 39 -58 8 0 14 -4
14 -9 0 -5 9 -11 19 -14 21 -5 51 -88 51 -136 l0 -26 -21 25 c-11 14 -27 39
-34 55 -8 17 -14 23 -15 14 0 -8 18 -40 40 -69 22 -29 40 -49 40 -44 0 5 4 2
9 -6 7 -10 4 -18 -10 -28 -25 -17 -21 -51 6 -66 11 -6 22 -12 24 -13 2 -2 -2
-9 -9 -18 -7 -9 -10 -18 -6 -22 3 -3 6 -1 6 5 0 22 40 13 49 -10 12 -33 33
-159 27 -165 -3 -3 -19 20 -36 51 -18 31 -34 56 -37 56 -2 0 14 -34 37 -75 29
-52 40 -83 36 -99 -7 -29 15 -59 40 -54 21 4 22 24 6 113 -14 77 -33 136 -61
180 -13 22 -24 41 -23 43 1 1 2 5 1 10 -1 4 0 17 0 29 1 11 -3 24 -8 28 -6 3
-11 31 -11 60 0 52 -24 135 -39 135 -4 0 -15 6 -26 13 -16 12 -17 17 -5 44
l13 29 95 -22 c52 -13 96 -25 97 -26 1 -2 12 -32 25 -68 27 -78 74 -190 101
-243 11 -21 16 -44 13 -50 -4 -7 -4 -9 1 -5 4 4 39 -43 77 -105 38 -62 77
-120 85 -129 15 -17 14 -30 -3 -73 -6 -16 -5 -18 7 -9 8 5 21 10 31 10 9 -1
61 -61 117 -134 56 -74 98 -132 94 -130 -55 24 -263 210 -263 235 0 8 -5 11
-10 8 -6 -3 -10 -2 -10 3 0 4 -8 17 -18 28 -10 11 -27 32 -37 47 -27 41 -30
25 -4 -25 27 -52 132 -164 214 -226 82 -62 86 -66 43 -49 -20 9 -65 35 -99 59
-34 24 -71 49 -83 57 -11 8 -1 -7 24 -33 77 -80 260 -196 313 -196 9 0 50 -11
89 -25 39 -14 81 -25 92 -24 12 0 0 6 -25 13 -74 20 -130 59 -222 156 -63 66
-96 111 -122 164 -19 40 -35 76 -35 78 0 3 15 9 34 12 25 5 45 1 75 -15 23
-11 44 -25 47 -30 3 -5 10 -7 15 -4 5 4 9 1 9 -5 0 -6 5 -8 10 -5 6 3 10 2 10
-3 0 -7 42 -32 55 -32 2 0 -35 38 -81 84 -64 65 -84 91 -84 112 0 44 39 164
78 239 l37 70 6 -72 c10 -105 55 -229 107 -293 17 -20 23 -23 33 -12 24 23 42
15 36 -17 -8 -37 12 -55 86 -81 53 -19 57 -19 85 -3 34 20 65 60 38 50 -19 -7
-61 47 -52 68 3 8 1 17 -4 20 -13 8 -13 35 1 35 6 0 24 13 41 30 37 38 79 40
113 5 14 -13 25 -35 25 -49 0 -25 -5 -31 -45 -62 -18 -13 -17 -14 10 0 17 8
48 30 70 49 37 33 39 37 43 103 2 38 -1 88 -7 111 -13 46 -94 175 -134 212
-15 13 -24 28 -21 32 3 5 2 9 -3 9 -4 0 -26 12 -48 25 l-40 26 35 -7 c19 -3
55 -13 78 -21 24 -8 46 -12 49 -9 7 7 -42 51 -80 70 l-32 17 38 -6 c28 -5 37
-3 32 5 -7 11 -70 43 -87 44 -5 1 -8 4 -8 9 0 30 1 31 13 17 13 -16 35 -19 55
-7 11 8 16 2 13 -15 -1 -9 27 -4 36 7 4 4 3 5 -4 2 -6 -4 -13 -3 -15 1 -1 5
-35 27 -74 50 -135 78 -302 220 -407 346 l-49 59 29 15 c15 9 57 24 93 34 l65
18 -55 -3 c-30 -2 -75 -13 -99 -25 -25 -12 -48 -19 -52 -15 -23 26 -130 199
-135 219 -3 13 -10 22 -14 19 -11 -7 -124 237 -168 365 -22 63 -51 174 -66
245 -15 72 -29 140 -32 153 -2 12 -9 22 -14 22 -6 0 -8 -10 -6 -22z m352 -978
l31 -75 -48 -54 c-62 -70 -64 -86 -3 -21 26 28 50 50 54 50 4 0 25 -29 46 -65
21 -36 68 -105 105 -154 l66 -88 -42 -26 c-23 -15 -50 -36 -61 -48 -16 -19
-12 -18 25 6 24 15 54 28 67 29 12 0 20 4 17 9 -9 15 13 6 42 -17 l29 -23 -57
-27 c-62 -30 -160 -112 -154 -130 2 -6 -18 -39 -44 -72 -27 -34 -59 -85 -72
-113 -13 -28 -27 -47 -31 -44 -4 4 -4 1 -1 -8 3 -8 0 -22 -7 -32 -11 -14 -13
1 -13 90 -1 207 -34 815 -52 943 l-6 45 38 -50 c22 -27 53 -84 71 -125z m53
-54 c-11 -12 -15 -8 -35 40 l-16 39 30 -35 c18 -21 27 -39 21 -44z m125 -114
c55 -53 125 -117 154 -141 29 -24 51 -45 49 -48 -11 -10 -111 -42 -118 -37
-23 14 -159 206 -193 272 -15 29 -15 52 1 52 3 0 51 -44 107 -98z m333 -278
c8 -7 20 -14 27 -14 8 0 19 -7 26 -15 8 -9 9 -15 2 -15 -6 0 -13 4 -16 9 -6 9
-65 -1 -111 -19 -33 -13 -91 1 -80 20 3 5 0 10 -8 10 -8 0 -20 6 -26 14 -10
12 -8 16 11 21 72 19 97 29 92 37 -7 12 65 -30 83 -48z m-1217 -44 c0 -5 -5
-10 -11 -10 -5 0 -7 5 -4 10 3 6 8 10 11 10 2 0 4 -4 4 -10z m1040 -18 c0 -5
-12 -14 -27 -21 l-28 -12 25 21 c29 22 30 23 30 12z m154 -258 c8 -21 -1 -34
-24 -34 -22 0 -34 15 -26 35 7 20 42 19 50 -1z m256 -209 c0 -8 -4 -15 -9 -15
-13 0 -22 16 -14 24 11 11 23 6 23 -9z"/>
<path d="M1338 2533 c7 -3 16 -2 19 1 4 3 -2 6 -13 5 -11 0 -14 -3 -6 -6z"/>
<path d="M690 3950 c85 -216 288 -474 460 -587 36 -24 70 -46 75 -51 6 -4 13
-9 18 -10 4 -1 9 -3 12 -3 14 -4 22 -7 45 -16 14 -6 40 -14 58 -18 18 -3 30
-11 27 -16 -4 -5 1 -6 10 -2 10 3 20 2 24 -3 3 -5 22 -7 41 -4 35 5 35 6 -32
30 -37 13 -66 26 -64 27 2 2 38 -4 82 -12 108 -21 271 -36 303 -28 23 6 21 8
-24 19 l-50 12 68 2 c37 1 73 3 79 4 7 0 40 -30 72 -69 115 -135 285 -290 390
-355 32 -19 40 -20 47 -9 8 11 9 10 7 -5 -2 -10 3 -21 11 -24 8 -2 11 0 8 6
-4 5 0 15 9 22 8 8 11 16 5 19 -14 9 -15 33 -3 63 12 29 77 98 93 98 6 0 7 5
3 12 -5 8 -2 9 10 5 10 -4 52 -17 94 -29 42 -12 81 -24 85 -28 4 -4 -13 -10
-38 -13 -44 -6 -195 -69 -195 -82 0 -3 21 5 48 19 73 36 103 41 45 7 -29 -17
-74 -52 -99 -77 l-46 -47 -98 51 c-54 28 -101 48 -104 45 -3 -4 -6 -2 -6 4 0
5 -12 15 -27 22 -26 10 -25 9 7 -18 19 -17 40 -31 45 -31 6 0 21 -9 35 -20 25
-20 25 -20 -30 -1 -30 10 -86 32 -124 50 -40 18 -63 25 -56 16 17 -20 281
-149 350 -170 73 -23 71 -21 55 -59 -9 -22 -11 -36 -4 -43 24 -24 -87 -63
-182 -63 -80 0 -238 29 -324 59 -73 26 -80 26 -35 0 31 -18 32 -19 8 -15 -14
3 -34 8 -45 11 -10 3 1 -3 23 -14 149 -69 396 -92 507 -46 13 6 17 2 17 -15 0
-19 2 -20 15 -10 8 7 12 16 9 21 -6 10 40 59 55 59 5 0 14 -33 21 -72 21 -133
63 -243 89 -233 29 12 35 10 39 -8 2 -10 -4 -24 -13 -31 -16 -11 -14 -15 15
-39 40 -34 68 -41 104 -27 l29 11 -21 20 c-49 45 -5 129 79 150 44 12 101 6
97 -9 -1 -4 4 -20 11 -37 7 -16 10 -42 7 -57 -5 -28 -5 -28 52 -28 32 0 52 4
44 8 -10 7 -8 16 5 43 29 55 30 208 3 289 -29 88 -72 161 -120 204 -45 41 -38
44 52 21 94 -25 169 -62 216 -108 l42 -41 0 -76 c0 -41 -5 -95 -11 -119 -5
-24 -7 -46 -4 -49 6 -6 29 48 65 153 25 72 32 83 75 112 26 18 51 33 55 33 13
0 19 -206 9 -302 -13 -127 -59 -285 -80 -273 -5 4 -6 0 -3 -8 11 -29 -147
-163 -231 -196 -25 -9 -26 -10 -5 -7 14 2 39 9 55 14 17 6 49 16 73 22 27 7
40 15 36 22 -4 6 -3 8 3 5 5 -3 28 13 50 36 44 44 183 235 183 250 0 4 5 5 10
2 6 -4 10 5 10 19 0 14 -4 26 -10 26 -5 0 -10 -4 -10 -9 0 -4 -25 -35 -56 -67
-32 -34 -54 -50 -50 -39 37 129 39 146 42 339 2 150 6 201 16 207 9 6 7 9 -8
9 -19 0 -22 8 -28 73 -10 104 -40 235 -83 364 l-38 113 25 25 25 25 24 -63
c36 -97 64 -157 77 -168 11 -9 10 -16 -3 -36 -16 -25 -16 -26 7 -45 26 -21 39
-20 54 5 8 12 7 22 -2 37 -13 22 -16 76 -4 83 4 3 30 -21 57 -52 100 -113 211
-188 311 -209 36 -7 39 -11 42 -46 5 -63 -17 -176 -52 -263 -18 -46 -32 -83
-30 -83 2 0 17 26 33 58 39 76 67 173 76 255 l7 67 39 0 39 0 0 530 0 530
-213 0 c-157 0 -217 -3 -226 -12 -11 -10 -13 -10 -7 0 5 8 0 12 -14 12 -17 0
-19 -3 -11 -19 8 -14 6 -23 -9 -36 -11 -10 -20 -23 -20 -29 0 -6 -12 -22 -25
-35 -19 -18 -24 -19 -18 -6 4 12 3 16 -4 12 -6 -4 -8 3 -5 18 2 14 8 25 12 25
5 0 6 -10 3 -22 -4 -19 -3 -20 6 -8 14 19 14 53 1 45 -20 -13 -9 14 12 29 26
18 7 22 -24 5 -18 -9 -20 -9 -15 4 5 14 -19 16 -207 17 -116 0 -215 -2 -218
-6 -11 -11 14 -54 32 -54 26 0 31 -12 12 -26 -16 -13 -16 -13 0 -14 12 0 15
-5 11 -16 -5 -14 -3 -15 15 -5 17 9 22 9 22 0 0 -7 8 -21 17 -32 17 -18 17
-19 -1 -29 -16 -9 -15 -12 14 -30 18 -10 35 -28 37 -39 4 -15 8 -17 14 -8 6
10 19 6 56 -17 26 -16 48 -35 48 -42 0 -7 6 -17 14 -21 8 -5 10 -14 6 -22 -7
-12 -6 -12 6 -1 12 11 11 16 -6 28 -19 14 -19 14 5 11 18 -3 24 -10 22 -23 -5
-25 -22 -45 -33 -38 -5 3 -9 2 -8 -3 4 -16 -13 -43 -24 -36 -6 3 -7 1 -3 -5 4
-6 -3 -25 -15 -42 -28 -37 -41 -29 -69 48 -12 32 -39 96 -61 144 -23 49 -37
93 -33 100 4 7 3 9 -1 5 -5 -4 -29 32 -54 80 l-46 88 -47 3 c-47 3 -48 3 -39
-21 15 -39 31 -135 37 -224 l7 -83 99 -100 99 -100 -16 -50 -17 -50 -46 37
c-26 21 -49 40 -52 44 -3 3 -22 18 -42 33 -30 22 -38 25 -38 12 0 -9 4 -16 8
-16 4 0 41 -30 81 -66 71 -66 72 -68 66 -105 -7 -43 -14 -39 72 -43 38 -2 118
-107 136 -179 9 -34 14 -63 12 -65 -3 -3 -135 31 -240 63 -11 3 -2 -3 20 -14
36 -18 37 -20 10 -14 -47 9 -142 42 -233 81 -45 19 -86 32 -89 28 -10 -10 -1
-15 97 -57 113 -49 256 -86 361 -95 80 -7 109 -19 67 -29 -93 -21 -123 -25
-197 -25 -46 0 -109 7 -140 15 -31 8 -110 19 -176 24 -179 15 -349 69 -551
176 -94 49 -185 107 -226 143 -17 14 -14 17 40 39 31 14 67 27 80 30 12 3 22
10 22 16 0 6 3 8 6 4 7 -7 65 22 87 45 12 12 13 18 4 28 -10 10 -8 10 10 1 39
-20 47 -11 17 20 -18 19 -22 28 -11 24 9 -4 17 -11 17 -15 0 -4 7 -10 15 -14
13 -5 13 -2 -1 19 -9 14 -20 25 -25 25 -5 0 -9 5 -9 11 0 6 7 8 18 4 13 -5 14
-4 5 6 -10 10 -18 10 -40 0 -28 -13 -27 -12 5 18 46 45 40 46 -18 5 -28 -20
-47 -41 -43 -46 3 -7 1 -8 -5 -4 -6 4 -29 -5 -52 -19 -84 -53 -171 -96 -182
-89 -7 4 -8 3 -4 -4 8 -13 -124 -57 -221 -72 -90 -15 -278 -4 -378 21 -206 52
-401 181 -524 348 -49 66 -141 234 -141 258 0 6 -5 15 -10 18 -6 4 -1 -17 10
-45z m2910 4 c0 -8 -19 -13 -24 -6 -3 5 1 9 9 9 8 0 15 -2 15 -3z m-35 -44
c-3 -5 -12 -10 -18 -10 -7 0 -6 4 3 10 19 12 23 12 15 0z m-25 -26 c0 -8 -19
-13 -24 -6 -3 5 1 9 9 9 8 0 15 -2 15 -3z m-107 -99 c-3 -9 -8 -14 -10 -11 -3
3 -2 9 2 15 9 16 15 13 8 -4z m-45 -28 c-1 -2 4 -12 12 -23 14 -19 14 -19 -7
0 -13 10 -20 23 -17 28 3 5 8 7 11 4 2 -2 3 -6 1 -9z m-7 -60 c-10 -9 -11 -8
-5 6 3 10 9 15 12 12 3 -3 0 -11 -7 -18z m29 -141 c0 -22 -19 -40 -44 -43 -29
-4 -30 -4 -17 30 7 17 17 25 35 25 14 0 26 -6 26 -12z m-197 -91 c4 3 5 2 2
-2 -3 -3 1 -13 7 -22 7 -9 8 -13 4 -9 -5 4 -16 2 -25 -5 -14 -11 -14 -10 -2 6
7 9 11 18 7 18 -3 1 -10 2 -15 3 -5 0 -13 5 -18 10 -5 5 -2 6 6 1 10 -6 12 -2
7 16 l-7 24 14 -23 c7 -12 16 -20 20 -17z m-1269 -144 c71 -48 275 -155 413
-216 l73 -32 -50 -32 c-49 -32 -80 -73 -80 -106 0 -10 5 -13 13 -9 7 4 9 3 4
-2 -5 -5 -13 -10 -18 -10 -5 -1 -14 -2 -20 -3 -5 0 -7 -6 -3 -12 26 -42 -144
100 -259 217 -68 69 -167 214 -167 245 0 18 26 8 94 -40z m1466 9 c6 -12 8
-30 5 -40 -4 -11 -3 -20 2 -20 7 0 9 -42 4 -67 -3 -13 -30 40 -41 81 -17 58 5
92 30 46z m-157 -57 c5 -26 4 -27 -10 -8 -8 11 -19 19 -25 17 -7 -2 -6 3 1 12
17 20 27 13 34 -21z m110 -358 c9 -19 20 -54 23 -77 l7 -41 -39 7 c-49 9 -146
55 -139 66 3 5 -1 10 -7 13 -7 2 -10 7 -7 11 6 6 125 53 140 55 3 1 13 -15 22
-34z m-943 -121 c0 -2 -7 -4 -15 -4 -8 0 -15 4 -15 10 0 5 7 7 15 4 8 -4 15
-8 15 -10z m278 -83 c-2 -9 -13 -17 -26 -19 -16 -3 -22 2 -22 16 0 11 6 22 13
25 20 7 38 -4 35 -22z m-228 -40 c0 -16 -27 -37 -36 -28 -4 4 25 47 32 47 2 0
4 -9 4 -19z m-120 -81 c-8 -5 -19 -10 -25 -10 -5 0 -3 5 5 10 8 5 20 10 25 10
6 0 3 -5 -5 -10z m680 -155 c0 -8 -7 -15 -15 -15 -8 0 -15 7 -15 15 0 8 7 15
15 15 8 0 15 -7 15 -15z"/>
<path d="M1358 3980 c108 -66 359 -173 435 -186 18 -3 -6 8 -53 24 -141 50
-174 67 -235 126 -39 37 -67 56 -84 56 -19 0 -22 -3 -13 -12 24 -24 11 -29
-22 -9 -18 12 -40 21 -47 21 -8 0 1 -9 19 -20z"/>
<path d="M2590 3982 c0 -12 34 -46 89 -90 48 -39 94 -77 102 -84 8 -7 32 -26
54 -43 22 -16 46 -35 53 -42 7 -7 16 -13 19 -13 7 0 -7 102 -16 115 -4 6 -8
27 -10 48 -1 21 -8 57 -15 80 l-12 42 -132 3 c-123 2 -132 1 -132 -16z"/>
<path d="M1810 3965 c7 -8 17 -15 22 -15 6 0 5 7 -2 15 -7 8 -17 15 -22 15 -6
0 -5 -7 2 -15z"/>
<path d="M1850 3780 c14 -4 34 -8 45 -8 16 0 15 2 -5 8 -14 4 -34 8 -45 8 -16
0 -15 -2 5 -8z"/>
<path d="M2308 3773 c7 -3 16 -2 19 1 4 3 -2 6 -13 5 -11 0 -14 -3 -6 -6z"/>
<path d="M741 3750 c14 -31 19 -36 19 -24 0 6 -7 19 -16 30 -14 18 -14 18 -3
-6z"/>
<path d="M1945 3761 c31 -9 102 -14 94 -7 -2 2 -31 6 -64 9 -39 4 -50 3 -30
-2z"/>
<path d="M2258 3763 c6 -2 18 -2 25 0 6 3 1 5 -13 5 -14 0 -19 -2 -12 -5z"/>
<path d="M2188 3753 c12 -2 30 -2 40 0 9 3 -1 5 -23 4 -22 0 -30 -2 -17 -4z"/>
<path d="M2384 3745 c-10 -8 -14 -15 -8 -15 6 0 17 7 24 15 16 19 9 19 -16 0z"/>
<path d="M2088 3743 c12 -2 30 -2 40 0 9 3 -1 5 -23 4 -22 0 -30 -2 -17 -4z"/>
<path d="M2346 3731 c-4 -5 -14 -9 -24 -9 -14 0 -187 -45 -217 -58 -33 -13 98
11 137 26 43 16 47 16 51 1 4 -14 5 -14 6 2 0 9 9 17 19 17 22 0 48 17 40 25
-3 4 -9 2 -12 -4z"/>
<path d="M760 3705 c0 -40 257 -469 354 -591 23 -28 55 -68 71 -90 92 -119
288 -320 392 -403 23 -18 44 -40 47 -48 3 -8 -12 -1 -33 16 -43 34 -51 37 -51
18 0 -7 25 -25 55 -40 55 -27 84 -36 55 -17 -9 6 -10 10 -3 10 6 0 15 -5 18
-10 4 -6 12 -7 18 -3 7 4 6 -1 -2 -10 -12 -15 -12 -17 4 -11 13 5 16 4 11 -4
-4 -7 -1 -12 8 -12 8 0 17 -6 19 -12 4 -9 6 -9 6 -1 1 6 10 9 21 6 11 -3 18
-9 15 -13 -2 -4 14 -13 36 -19 23 -7 48 -15 58 -18 9 -3 3 5 -14 16 l-30 22
30 -8 c45 -12 204 -8 218 6 8 8 -6 11 -57 11 -145 0 -328 76 -461 191 -233
203 -412 390 -456 477 -7 15 -30 52 -50 82 -20 31 -76 121 -123 200 -47 80
-89 150 -94 155 -4 6 -9 15 -11 20 -11 36 -51 99 -51 80z"/>
<path d="M2053 3653 c9 -2 23 -2 30 0 6 3 -1 5 -18 5 -16 0 -22 -2 -12 -5z"/>
<path d="M2902 3580 c0 -14 2 -19 5 -12 2 6 2 18 0 25 -3 6 -5 1 -5 -13z"/>
<path d="M2878 3548 c6 -7 12 -29 15 -48 4 -34 4 -34 5 6 2 31 -2 44 -14 48
-13 5 -14 3 -6 -6z"/>
<path d="M2316 3451 c2 -3 -15 -11 -37 -19 -42 -14 -123 -62 -116 -68 2 -2 36
12 76 32 41 20 85 38 100 41 14 2 49 8 76 13 47 7 45 8 -27 6 -42 0 -74 -3
-72 -5z"/>
<path d="M2493 3453 c9 -2 23 -2 30 0 6 3 -1 5 -18 5 -16 0 -22 -2 -12 -5z"/>
<path d="M2882 3440 c0 -14 2 -19 5 -12 2 6 2 18 0 25 -3 6 -5 1 -5 -13z"/>
<path d="M242 3430 c0 -14 2 -19 5 -12 2 6 2 18 0 25 -3 6 -5 1 -5 -13z"/>
<path d="M1924 3429 c-3 -6 -17 -8 -31 -4 -14 3 -22 2 -19 -3 3 -5 -9 -8 -27
-8 -65 0 -342 -15 -346 -20 -12 -12 17 -15 135 -16 138 -1 266 19 293 47 8 8
12 15 9 15 -4 0 -10 -5 -14 -11z"/>
<path d="M2375 3404 c54 -45 221 -154 303 -198 64 -34 84 -41 92 -31 8 10 4
14 -14 19 -34 8 -225 117 -319 182 -83 57 -113 70 -62 28z"/>
<path d="M2861 3373 c-1 -6 -4 -20 -7 -30 -5 -17 -5 -17 6 0 6 10 9 23 6 30
-3 9 -5 9 -5 0z"/>
<path d="M252 3340 c0 -14 2 -19 5 -12 2 6 2 18 0 25 -3 6 -5 1 -5 -13z"/>
<path d="M2825 3282 c-27 -53 -27 -52 -21 -52 7 0 48 81 44 86 -2 2 -12 -13
-23 -34z"/>
<path d="M262 3255 c0 -16 2 -22 5 -12 2 9 2 23 0 30 -3 6 -5 -1 -5 -18z"/>
<path d="M1328 3223 c6 -2 18 -2 25 0 6 3 1 5 -13 5 -14 0 -19 -2 -12 -5z"/>
<path d="M241 3094 c0 -11 3 -14 6 -6 3 7 2 16 -1 19 -3 4 -6 -2 -5 -13z"/>
<path d="M292 3070 c0 -14 2 -19 5 -12 2 6 2 18 0 25 -3 6 -5 1 -5 -13z"/>
<path d="M251 3044 c0 -11 3 -14 6 -6 3 7 2 16 -1 19 -3 4 -6 -2 -5 -13z"/>
<path d="M2 3030 c0 -14 2 -19 5 -12 2 6 2 18 0 25 -3 6 -5 1 -5 -13z"/>
<path d="M3419 3024 c-5 -15 -7 -29 -5 -32 3 -2 8 7 12 22 7 29 38 36 48 10 8
-21 8 -70 -1 -130 l-7 -49 -22 70 c-13 39 -23 63 -23 54 -1 -8 9 -46 22 -84
27 -81 34 -73 43 51 5 61 3 88 -6 99 -20 24 -49 18 -61 -11z"/>
<path d="M670 2912 c0 -29 31 -226 36 -231 6 -6 -3 89 -18 182 -9 64 -18 87
-18 49z"/>
<path d="M3447 2780 c-3 -11 1 -27 10 -35 20 -21 53 -2 53 30 0 21 -5 25 -29
25 -20 0 -30 -6 -34 -20z m33 0 c0 -5 -5 -10 -11 -10 -5 0 -7 5 -4 10 3 6 8
10 11 10 2 0 4 -4 4 -10z"/>
<path d="M1351 2737 c2 -1 13 -9 24 -17 19 -14 19 -14 6 3 -7 9 -18 17 -24 17
-6 0 -8 -1 -6 -3z"/>
<path d="M3966 2663 c-19 -77 -84 -229 -122 -286 -14 -21 -22 -43 -18 -49 4
-6 3 -8 -3 -5 -6 4 -33 -18 -59 -48 -48 -54 -139 -131 -183 -155 -17 -9 -26
-9 -37 1 -13 10 -17 10 -25 -2 -5 -8 -9 -19 -9 -25 0 -14 -58 -41 -158 -74
-55 -18 -77 -29 -64 -32 17 -5 51 4 105 27 15 6 17 1 19 -41 1 -43 2 -44 5
-12 4 32 27 58 41 44 2 -3 -2 -69 -9 -148 -13 -134 -14 -139 -20 -83 -4 33 -5
-1 -2 -75 3 -127 2 -140 -22 -205 -33 -89 -92 -198 -149 -279 -118 -164 -534
-579 -616 -614 -55 -23 -328 -12 -595 24 -245 33 -458 93 -574 161 -90 52
-248 207 -347 338 -75 98 -82 111 -67 123 11 7 12 12 4 12 -9 0 -8 4 3 15 19
20 27 19 20 -2 -2 -10 1 -8 7 5 7 12 18 22 26 22 15 0 93 38 93 45 0 2 -16 -3
-35 -11 -19 -8 -37 -14 -40 -14 -3 0 -6 0 -7 0 -2 -1 -44 -3 -95 -6 -134 -8
-252 19 -420 97 -46 21 -83 35 -83 31 -1 -4 -8 6 -16 21 -25 46 -24 28 2 -52
13 -40 24 -81 24 -89 0 -8 3 -13 6 -9 7 7 80 -28 89 -43 4 -6 11 -8 16 -5 5 4
9 1 9 -5 0 -7 -6 -10 -13 -7 -6 2 -29 10 -50 18 -20 7 -37 18 -37 24 0 5 -13
11 -29 11 -26 1 -186 99 -239 147 l-22 21 15 -31 c14 -29 45 -63 45 -50 0 3
41 -19 92 -49 50 -29 99 -56 109 -59 9 -3 20 -16 24 -28 6 -18 8 -19 12 -6 4
15 7 15 31 4 15 -8 39 -18 54 -24 16 -6 35 -26 47 -48 10 -21 66 -97 123 -168
57 -72 115 -146 128 -165 14 -19 34 -46 46 -60 115 -135 174 -198 384 -415
133 -137 247 -249 252 -247 5 1 7 -2 3 -8 -4 -6 14 -35 40 -65 l47 -55 800 2
801 3 17 53 c9 28 15 52 12 52 -2 0 0 6 5 13 6 6 13 31 17 54 3 22 21 90 40
150 59 187 105 442 165 903 24 179 62 556 65 645 7 150 -3 128 88 192 46 32
87 57 91 55 5 -1 6 1 3 6 -6 9 54 58 66 54 4 -1 5 4 2 11 -2 7 4 22 16 32 20
18 20 18 20 -36 0 -30 -3 -91 -7 -136 l-6 -82 -41 -4 -41 -4 43 -1 43 -2 -6
-72 c-3 -40 -9 -84 -12 -98 -3 -14 -6 -51 -5 -82 0 -35 -3 -58 -10 -58 -6 0
-8 -9 -5 -21 6 -21 -34 -314 -53 -399 -6 -25 -13 -63 -15 -85 -10 -85 -27
-191 -36 -220 -9 -29 -16 -75 -18 -125 -1 -16 -4 -21 -9 -13 -6 9 -11 7 -20
-7 -10 -16 -9 -18 3 -14 10 4 15 0 15 -15 0 -12 -4 -21 -10 -21 -5 0 -10 -8
-10 -17 0 -16 2 -16 11 -3 8 12 9 11 5 -5 -3 -11 -8 -51 -12 -90 -3 -38 -10
-75 -15 -81 -5 -6 -9 -27 -9 -45 1 -19 -1 -47 -4 -64 -3 -16 -8 -48 -11 -70
-3 -21 -19 -104 -35 -183 -17 -80 -30 -151 -30 -158 0 -11 35 -14 185 -14
l185 0 0 1141 0 1141 -22 -14 -23 -15 3 86 2 86 -41 -80 c-56 -111 -118 -192
-194 -255 -17 -13 -9 -2 16 25 52 56 95 120 123 179 53 117 143 436 123 436
-3 0 -12 -30 -21 -67z m-274 -565 c-17 -18 -35 -29 -39 -24 -4 4 7 21 26 37
45 37 52 30 13 -13z m-115 -68 c8 -30 20 -61 25 -67 6 -7 8 -19 5 -26 -3 -7 1
-21 9 -32 23 -31 16 -123 -9 -108 -6 3 -7 1 -3 -6 12 -18 -11 -38 -41 -37 -21
1 -33 11 -51 41 -21 37 -23 48 -17 130 5 80 15 139 31 185 8 23 32 -14 51 -80z
m-2901 -685 c17 -16 14 -18 -10 -9 -9 3 -16 10 -16 15 0 13 9 11 26 -6z m9
-95 c3 -5 1 -10 -4 -10 -6 0 -11 5 -11 10 0 6 2 10 4 10 3 0 8 -4 11 -10z
m253 -20 c11 -18 10 -19 -21 -13 -17 4 -52 12 -77 19 l-45 12 65 1 c55 1 67
-2 78 -19z m0 -26 c15 -4 60 -61 132 -166 61 -88 110 -163 110 -166 1 -4 14
-22 30 -41 16 -19 26 -39 23 -45 -3 -6 -3 -8 2 -4 11 11 38 -29 29 -44 -4 -6
-3 -8 3 -5 6 4 16 0 23 -8 7 -8 9 -15 4 -15 -5 0 2 -7 14 -16 13 -9 21 -22 18
-30 -3 -8 0 -13 6 -11 7 1 12 -3 13 -10 0 -7 7 -18 16 -25 21 -17 89 -122 89
-137 0 -8 -7 -10 -19 -6 -24 7 -37 -11 -21 -30 6 -8 8 -20 4 -26 -4 -8 -3 -9
4 -5 7 4 12 13 12 19 0 17 37 39 45 27 3 -6 -1 -10 -9 -10 -9 0 -16 -2 -16 -4
0 -2 -3 -13 -6 -23 -6 -17 -6 -17 8 1 8 10 20 16 26 12 16 -10 15 -26 0 -22
-7 1 -10 1 -5 -1 4 -3 5 -9 1 -14 -3 -5 -1 -9 5 -9 5 0 11 6 14 13 3 9 8 9 17
1 9 -9 7 -15 -11 -28 -13 -8 -20 -18 -17 -21 3 -3 13 1 21 10 17 16 32 21 23
6 -3 -5 1 -12 10 -15 8 -3 13 -10 10 -15 -4 -5 0 -12 6 -15 10 -3 8 -9 -5 -19
-18 -15 -18 -16 0 -25 10 -6 14 -14 10 -19 -5 -4 -12 -1 -17 7 -13 22 -43 57
-34 40 4 -8 -33 26 -83 75 -50 50 -91 93 -92 98 -1 13 -26 35 -33 31 -8 -5
-74 88 -70 100 2 5 -4 6 -12 3 -9 -4 -21 5 -32 21 -10 15 -25 33 -35 40 -52
36 -410 505 -397 518 2 1 35 -1 73 -6 72 -7 89 -5 80 11 -7 10 1 11 33 3z
m492 -744 c0 -5 -4 -10 -10 -10 -5 0 -10 5 -10 10 0 6 5 10 10 10 6 0 10 -4
10 -10z m147 -180 c3 -11 9 -20 14 -20 5 0 9 -5 9 -11 0 -5 -6 -7 -12 -4 -7 4
-5 0 5 -8 9 -8 17 -20 17 -26 0 -7 -11 0 -25 15 -13 14 -22 31 -19 36 3 5 0
15 -6 23 -10 12 -10 15 0 15 6 0 14 -9 17 -20z m78 -98 c-3 -3 -11 0 -18 7 -9
10 -8 11 6 5 10 -3 15 -9 12 -12z"/>
<path d="M3610 1861 c0 -5 -3 -16 -6 -25 -3 -9 -2 -16 3 -16 5 0 10 11 11 25
1 14 0 25 -3 25 -3 0 -5 -4 -5 -9z"/>
<path d="M1140 698 c0 -3 9 -6 20 -5 11 1 20 5 20 9 0 3 -9 6 -20 5 -11 -1
-20 -5 -20 -9z"/>
<path d="M1183 665 c0 -8 4 -12 9 -9 5 3 6 10 3 15 -9 13 -12 11 -12 -6z"/>
<path d="M1285 640 c-4 -6 -10 -8 -14 -5 -5 2 -15 -3 -24 -13 -14 -15 -12 -21
19 -61 19 -24 34 -38 34 -31 0 9 7 7 20 -5 12 -10 18 -26 15 -34 -4 -13 -2
-12 8 1 8 10 18 14 22 10 4 -4 2 3 -4 16 -10 18 -9 25 4 38 18 18 18 24 4 44
-8 12 -9 11 -4 -6 3 -13 -1 -26 -10 -34 -9 -8 -13 -21 -10 -34 6 -20 6 -20 -9
-2 -9 10 -13 23 -9 29 3 6 1 7 -5 4 -6 -5 -8 0 -5 13 4 14 0 20 -10 20 -23 0
-31 -18 -15 -38 12 -15 11 -16 -4 -3 -21 16 -20 59 0 84 8 9 12 17 9 17 -3 0
-9 -5 -12 -10z m-19 -30 c0 -12 -4 -16 -9 -11 -5 5 -6 14 -3 20 10 15 12 14
12 -9z"/>
<path d="M1393 543 c5 -6 6 -22 2 -35 -5 -18 -4 -20 4 -8 10 13 12 13 20 0 6
-8 12 -12 15 -10 2 3 -8 19 -22 35 -15 17 -23 25 -19 18z"/>
<path d="M1385 430 c3 -5 8 -10 11 -10 2 0 4 5 4 10 0 6 -5 10 -11 10 -5 0 -7
-4 -4 -10z"/>
<path d="M1400 2705 c0 -10 46 -45 94 -73 l41 -23 -25 24 c-14 13 -28 23 -31
21 -3 -2 -15 4 -25 14 -36 32 -54 44 -54 37z"/>
<path d="M3467 2693 c-9 -8 -7 -79 3 -118 5 -18 6 0 3 43 -4 46 -2 72 4 72 14
0 23 -50 22 -124 0 -46 -3 -56 -10 -41 -7 16 -8 12 -4 -14 3 -18 5 -40 5 -47
0 -8 4 -14 9 -14 12 0 14 191 2 223 -10 27 -21 33 -34 20z"/>
<path d="M1740 2685 c0 -7 61 -37 66 -33 2 3 -12 12 -31 21 -19 9 -35 15 -35
12z"/>
<path d="M3591 2592 c-1 -7 -15 -46 -32 -87 -20 -48 -37 -75 -50 -78 -10 -3
-19 -11 -19 -19 0 -11 2 -11 9 1 17 27 26 -13 28 -128 1 -62 5 -116 9 -120 3
-3 5 53 3 124 -2 112 0 136 18 175 30 67 45 119 40 133 -4 9 -6 9 -6 -1z"/>
<path d="M3987 2523 c-3 -16 -9 -37 -12 -48 l-7 -20 13 20 c13 19 24 75 16 75
-3 0 -7 -12 -10 -27z"/>
<path d="M2088 2503 c7 -3 16 -2 19 1 4 3 -2 6 -13 5 -11 0 -14 -3 -6 -6z"/>
<path d="M142 2410 c0 -14 2 -19 5 -12 2 6 2 18 0 25 -3 6 -5 1 -5 -13z"/>
<path d="M3152 2392 c-11 -21 -33 -51 -47 -66 -17 -19 -21 -26 -10 -22 9 3 26
6 38 6 18 0 19 2 7 10 -13 9 -11 13 9 29 14 11 25 30 26 50 2 17 2 31 1 31 -1
0 -12 -17 -24 -38z"/>
<path d="M1958 2403 c7 -3 16 -2 19 1 4 3 -2 6 -13 5 -11 0 -14 -3 -6 -6z"/>
<path d="M1460 2320 c8 -5 20 -10 25 -10 6 0 3 5 -5 10 -8 5 -19 10 -25 10 -5
0 -3 -5 5 -10z"/>
<path d="M3501 2290 c0 -8 4 -24 9 -35 5 -13 9 -14 9 -5 0 8 -4 24 -9 35 -5
13 -9 14 -9 5z"/>
<path d="M1598 2283 c7 -3 16 -2 19 1 4 3 -2 6 -13 5 -11 0 -14 -3 -6 -6z"/>
<path d="M0 2105 c0 -50 202 -289 307 -362 50 -36 51 -27 2 15 -53 44 -109
102 -154 157 -37 46 -63 91 -46 81 16 -11 13 10 -4 24 -8 7 -12 17 -9 22 8 13
-27 50 -42 44 -6 -2 -17 6 -24 20 -17 31 -30 31 -30 -1z"/>
<path d="M242 2070 c0 -14 2 -19 5 -12 2 6 2 18 0 25 -3 6 -5 1 -5 -13z"/>
<path d="M3238 1983 c7 -3 16 -2 19 1 4 3 -2 6 -13 5 -11 0 -14 -3 -6 -6z"/>
<path d="M3442 1970 c0 -14 2 -19 5 -12 2 6 2 18 0 25 -3 6 -5 1 -5 -13z"/>
<path d="M3178 1973 c7 -3 16 -2 19 1 4 3 -2 6 -13 5 -11 0 -14 -3 -6 -6z"/>
<path d="M3018 1953 c7 -3 16 -2 19 1 4 3 -2 6 -13 5 -11 0 -14 -3 -6 -6z"/>
<path d="M550 1922 c0 -11 9 -27 20 -37 24 -22 25 -18 4 23 -18 36 -24 40 -24
14z"/>
<path d="M3413 1882 c-12 -31 -21 -58 -19 -59 5 -6 47 98 44 107 -2 5 -13 -17
-25 -48z"/>
<path d="M367 1773 c-8 -16 0 -59 16 -88 20 -37 21 -33 2 29 -16 53 -13 70 9
41 14 -19 43 -142 44 -184 1 -13 8 -31 16 -39 14 -14 15 -12 7 19 -5 19 -16
68 -26 109 -21 94 -51 144 -68 113z"/>
<path d="M100 1745 c0 -5 13 -32 29 -61 17 -28 27 -55 24 -58 -18 -17 -46 0
-90 54 -26 33 -51 60 -55 60 -21 0 -3 -30 42 -72 28 -26 46 -49 41 -52 -4 -3
-26 12 -48 34 l-39 40 0 -45 c0 -40 3 -45 23 -45 13 0 23 -5 23 -10 0 -6 -11
-8 -27 -4 -25 7 -27 6 -14 -9 9 -11 10 -17 2 -17 -17 0 -14 -70 3 -76 22 -9
62 26 86 74 39 76 51 75 144 -17 91 -90 104 -101 196 -156 36 -21 71 -46 77
-54 7 -9 -1 15 -18 53 -20 45 -29 80 -26 99 3 24 2 27 -7 15 -10 -13 -21 -10
-81 26 -39 23 -82 49 -96 59 -14 10 -33 15 -42 12 -8 -4 -18 -2 -22 4 -4 7 1
8 12 4 17 -6 17 -5 -1 15 -21 24 -31 29 -20 10 13 -21 -52 44 -85 86 -17 21
-31 35 -31 31z m-45 -125 c3 -5 1 -10 -4 -10 -6 0 -11 5 -11 10 0 6 2 10 4 10
3 0 8 -4 11 -10z m-15 -114 c0 -3 -4 -8 -10 -11 -5 -3 -10 -1 -10 4 0 6 5 11
10 11 6 0 10 -2 10 -4z"/>
<path d="M3312 1664 c-23 -46 -42 -88 -41 -92 0 -4 20 33 45 82 25 48 44 90
42 92 -2 2 -23 -35 -46 -82z"/>
<path d="M3768 1705 c-16 -40 -24 -69 -52 -200 -40 -188 -70 -323 -101 -460
-48 -208 -131 -605 -145 -695 -7 -41 -25 -133 -41 -204 -16 -70 -29 -132 -29
-137 0 -5 17 -9 38 -9 l38 0 17 73 c9 39 19 98 23 130 3 31 10 60 15 63 5 3 9
18 9 33 0 15 11 73 24 127 14 54 27 112 30 129 3 16 10 41 15 55 5 14 23 97
40 185 16 88 32 174 35 190 4 17 8 44 10 60 2 17 9 55 15 85 11 59 41 255 67
441 8 64 14 130 12 145 -3 29 -3 28 -20 -11z"/>
<path d="M1120 1676 c0 -10 6 -13 15 -10 8 4 25 0 38 -9 18 -11 25 -12 34 -2
9 10 5 14 -23 20 -20 3 -42 9 -50 12 -8 3 -14 -1 -14 -11z"/>
<path d="M401 1645 c0 -5 6 -21 14 -35 8 -14 14 -20 14 -15 0 6 -6 21 -14 35
-8 14 -14 21 -14 15z"/>
<path d="M190 1535 c35 -36 67 -65 69 -65 3 0 -24 29 -59 65 -35 36 -67 65
-69 65 -3 0 24 -29 59 -65z"/>
<path d="M3255 1549 c-4 -6 -5 -12 -2 -15 2 -3 7 2 10 11 7 17 1 20 -8 4z"/>
<path d="M3172 1374 c-34 -68 -62 -128 -61 -132 0 -4 29 51 65 122 36 70 64
130 62 132 -2 2 -32 -53 -66 -122z"/>
<path d="M2535 1425 c-33 -8 -71 -19 -85 -25 l-25 -11 25 6 c156 33 192 31
198 -14 3 -19 -1 -21 -44 -21 l-47 0 34 -23 c38 -25 52 -73 25 -83 -9 -3 -16
-11 -16 -18 0 -6 -9 -19 -21 -29 -13 -12 -19 -13 -18 -5 4 34 -1 39 -26 22
-14 -9 -22 -20 -19 -25 3 -5 -3 -6 -12 -2 -12 4 -15 3 -10 -5 4 -8 0 -12 -12
-12 -10 0 -29 -11 -42 -25 -13 -14 -29 -25 -37 -25 -7 0 -13 -4 -13 -10 0 -5
-8 -10 -17 -10 -10 0 -25 -5 -33 -10 -11 -8 -3 -10 30 -8 25 2 44 8 43 13 -1
6 15 11 35 13 20 1 41 7 46 12 6 6 18 10 28 10 22 0 121 92 151 140 12 19 24
55 27 80 5 41 3 47 -23 63 -32 20 -59 20 -142 2z"/>
<path d="M330 1386 c0 -4 19 -35 41 -68 l42 -61 -44 6 c-24 3 -113 15 -197 27
-85 11 -157 20 -162 18 -5 -2 9 -39 31 -82 21 -43 39 -85 39 -93 0 -7 5 -13
10 -13 6 0 10 -12 11 -27 1 -35 6 -22 14 42 6 39 9 46 16 30 7 -18 8 -18 9 5
l1 25 11 -22 c13 -26 28 -30 28 -8 0 8 7 15 15 15 12 0 15 -7 10 -33 -5 -26
-2 -36 18 -54 14 -12 29 -18 32 -15 7 7 4 -83 -11 -284 l-7 -91 -72 -36 -72
-35 8 51 c10 65 16 297 8 297 -3 0 -11 -73 -17 -162 -7 -90 -15 -173 -18 -184
-3 -12 -21 -30 -40 -40 -19 -10 -34 -22 -34 -27 0 -5 24 6 53 23 214 128 385
170 555 135 46 -9 86 -14 90 -11 3 3 -3 6 -13 6 -10 0 -16 2 -13 5 3 4 18 3
33 -1 20 -5 24 -9 13 -16 -9 -6 -6 -7 9 -3 19 5 32 -8 98 -109 41 -64 78 -116
81 -116 7 0 10 -6 -113 183 -83 127 -99 157 -83 157 46 0 55 103 16 187 -42
88 -136 217 -136 185 0 -6 3 -12 8 -14 14 -6 80 -104 111 -165 47 -95 40 -183
-15 -183 -28 0 -72 40 -91 83 -7 15 -15 49 -19 77 -4 29 -10 46 -14 40 -6 -10
-94 124 -101 155 -2 6 -11 19 -21 29 -10 11 -18 23 -18 26 0 7 -83 136 -94
148 -3 3 -6 2 -6 -2z m-114 -116 c17 0 22 -4 18 -15 -4 -9 0 -15 10 -15 9 0
16 5 16 10 0 6 5 10 11 10 8 0 9 -4 0 -13 -6 -8 -8 -17 -4 -21 4 -4 1 -5 -7
-2 -42 13 -71 16 -65 6 3 -5 15 -10 25 -10 24 0 33 -15 25 -40 -8 -25 -25 -17
-18 9 4 15 -2 19 -34 23 -21 3 -41 0 -45 -6 -4 -6 -9 -4 -14 7 -3 9 -10 15
-14 12 -4 -3 -10 9 -12 26 l-5 31 45 -6 c25 -3 55 -6 68 -6z m111 -36 c-3 -3
-12 -4 -19 -1 -8 3 -5 6 6 6 11 1 17 -2 13 -5z m-60 -56 c-3 -7 -5 -2 -5 12 0
14 2 19 5 13 2 -7 2 -19 0 -25z m0 -80 c-3 -8 -6 -5 -6 6 -1 11 2 17 5 13 3
-3 4 -12 1 -19z m89 -325 c-8 -8 -57 -12 -52 -5 2 4 16 8 31 8 14 1 24 0 21
-3z m-31 -33 c3 -6 -1 -7 -9 -4 -18 7 -21 14 -7 14 6 0 13 -4 16 -10z"/>
<path d="M1246 1381 c-11 -4 -15 -10 -10 -13 5 -4 18 0 29 8 20 15 12 17 -19
5z"/>
<path d="M2135 1267 c-71 -38 -89 -71 -63 -115 22 -36 63 -58 123 -66 l50 -7
-29 24 c-24 19 -28 29 -24 58 3 19 9 42 13 53 8 18 7 18 -19 1 -15 -10 -34
-32 -43 -49 l-16 -31 -10 28 c-15 45 -1 75 50 107 62 40 43 38 -32 -3z"/>
<path d="M2573 1235 c0 -8 4 -12 9 -9 5 3 6 10 3 15 -9 13 -12 11 -12 -6z"/>
<path d="M3791 1214 c0 -11 3 -14 6 -6 3 7 2 16 -1 19 -3 4 -6 -2 -5 -13z"/>
<path d="M561 1128 c2 -86 6 -76 11 25 2 31 0 57 -4 57 -5 0 -7 -37 -7 -82z"/>
<path d="M3062 1145 c-17 -37 -14 -45 4 -12 9 16 14 31 11 33 -2 2 -9 -7 -15
-21z"/>
<path d="M3015 1039 c-4 -6 -5 -12 -2 -15 2 -3 7 2 10 11 7 17 1 20 -8 4z"/>
<path d="M2986 975 c-9 -26 -7 -32 5 -12 6 10 9 21 6 23 -2 3 -7 -2 -11 -11z"/>
<path d="M3771 968 c0 -9 -4 -25 -7 -35 -5 -17 -5 -17 6 0 6 10 9 25 7 35 -4
15 -5 15 -6 0z"/>
<path d="M646 894 c-8 -22 -8 -22 17 -35 20 -11 21 -11 9 4 -11 13 -10 15 8
10 16 -4 19 -2 14 11 -3 9 -10 13 -15 10 -5 -3 -9 0 -9 5 0 17 -17 13 -24 -5z"/>
<path d="M783 791 c0 -11 5 -18 9 -15 4 3 5 11 1 19 -7 21 -12 19 -10 -4z"/>
<path d="M3681 754 c0 -11 3 -14 6 -6 3 7 2 16 -1 19 -3 4 -6 -2 -5 -13z"/>
<path d="M3702 740 c0 -14 2 -19 5 -12 2 6 2 18 0 25 -3 6 -5 1 -5 -13z"/>
<path d="M825 740 c3 -5 8 -10 11 -10 2 0 4 5 4 10 0 6 -5 10 -11 10 -5 0 -7
-4 -4 -10z"/>
<path d="M3644 686 c-3 -21 -4 -39 -1 -42 2 -3 8 11 11 32 4 20 5 38 2 41 -2
3 -8 -11 -12 -31z"/>
<path d="M920 648 c0 -2 9 -11 20 -21 11 -9 20 -13 20 -7 0 5 -9 14 -20 20
-11 6 -20 9 -20 8z"/>
<path d="M3700 550 c0 -5 5 -10 10 -10 6 0 10 5 10 10 0 6 -4 10 -10 10 -5 0
-10 -4 -10 -10z"/>
<path d="M3691 494 c0 -11 3 -14 6 -6 3 7 2 16 -1 19 -3 4 -6 -2 -5 -13z"/>
<path d="M916 460 c4 -8 20 -33 35 -55 66 -98 167 -287 162 -302 -5 -12 -3
-14 7 -8 9 5 11 4 6 -3 -9 -15 18 -55 30 -44 4 4 2 -2 -6 -12 -14 -18 -13 -19
4 -13 16 6 17 5 6 -8 -10 -13 -9 -15 9 -15 11 0 21 4 21 8 0 11 -119 218 -193
337 -52 84 -98 149 -81 115z"/>
<path d="M1230 321 c0 -5 3 -11 8 -13 15 -6 160 -176 188 -219 49 -77 64 -89
108 -89 l41 0 -149 148 c-153 152 -196 190 -196 173z"/>
</g>
</svg>
